#!OML:ASF F:\VICON\USERDATA\INSTALL\rory3\rory3.ASF
:FULLY-SPECIFIED
:DEGREES
53
root 0.22077950395326462 17.96741660605234 28.685390022100226 -3.9626595726700113 -0.7233872087274742 -6.589955725664987
lfemur -16.580431833921683 1.9062149910658786 -13.119310928533789
ltibia 56.67082696380209
lfoot -1.2402531540943196 -4.119312752174955
ltoes -7.444513020847465
rfemur -10.828732237454354 3.610021538574314 31.76029823677917
rtibia 36.350581684774525
rfoot -9.77109702999239 -7.315652792048854
rtoes 5.683821060526089
lowerback 10.483130426801644 0.12723096991513888 2.9137917880366295
upperback 0.04366267600428439 0.8849634671944484 2.4482763341536264
thorax -5.836026680396097 0.2228692462087271 1.1941994215376461
lowerneck -16.482150374497834 -3.448738879629185 -1.5625923178462477
upperneck 21.418081907325146 -4.332853866522632 1.7695088528987655
head 9.513375064286862 -2.151237557479793 0.25713790081080107
lclavicle 3.007644527659381e-16 5.650158564819754e-17
lhumerus -30.586607930195257 1.6506172353514756 83.36578639049459
lradius 23.490400254673382
lwrist 7.415576706135446
lhand -29.19447911660612 20.08662901575791
lfingers 7.125020000000001
lthumb -2.4937463691003154 50.476572540117594
rclavicle 2.9939854461665843e-16 5.552075394103358e-17
rhumerus -32.84252869958923 -23.83857398399969 -75.12759549002212
rradius 27.686959471663954
rwrist 4.554918727636226
rhand -17.94187198698764 23.249172173912715
rfingers 7.125020000000001
rthumb 8.017523937699432 -7.1996468236972895
54
root 0.2178497626969974 17.929249762544483 29.188588150867318 -3.6192858646010935 -1.5538932046516605 -7.083952110856929
lfemur -20.28006373112245 2.891755355546673 -12.883493690025965
ltibia 57.128993542587196
lfoot -1.6383190976909434 -3.6308171033709544
ltoes -7.149455997457386
rfemur -9.050926063813815 3.545078065017134 32.33277709878732
rtibia 34.98328275735529
rfoot -10.382309456006626 -7.198650218328469
rtoes 4.738593769208579
lowerback 10.54884426550023 0.4251977386173573 3.32137394184325
upperback 0.0030929549108020676 1.2640088632961954 2.335232818586757
thorax -5.875384685467488 0.4030285472475568 0.7636234842895181
lowerneck -16.433935355281193 -3.4809149977772607 -1.5371804426282227
upperneck 21.375958529982466 -4.294713125085866 1.8527498796047053
head 9.496628010098641 -2.1704014814010684 0.26349857202995264
lclavicle 3.00764452843565e-16 5.650158570393993e-17
lhumerus -31.450757678173346 2.0701488090141265 83.39321183165733
lradius 22.921080245770398
lwrist 7.153704889896822
lhand -29.246126931399004 19.76309447548648
lfingers 7.125020000000001
lthumb -2.5422331932066684 50.21941652177557
rclavicle 2.9939854486423286e-16 5.55207541188119e-17
rhumerus -30.832655493754064 -21.09536721142632 -76.88470130079013
rradius 28.525264705284123
rwrist 3.887849774925233
rhand -17.923305627803078 23.31165631270292
rfingers 7.125020000000001
rthumb 7.972191252241965 -7.210540482551947
55
root 0.23071406345189355 17.887862680842865 30.51969364453094 -3.0719621905280357 -2.2891817667681904 -7.4981586701007155
lfemur -23.42455433516841 3.282314961163399 -12.5515175212303
ltibia 55.76745701352898
lfoot -1.5137024408758961 -2.8069125602038567
ltoes -6.893811686799245
rfemur -7.252158278690088 3.4964777086652346 33.00887583377461
rtibia 33.64393223206787
rfoot -10.772144857467499 -7.105613155747324
rtoes 3.586822197674178
lowerback 10.660557883128716 0.7462885220213443 3.925049234715029
upperback -0.02646733973823355 1.8157181025634077 2.305769343554723
thorax -5.916785300572126 0.5832484050121651 0.2435962271626526
lowerneck -16.385020016279444 -3.5093199495134715 -1.5272325028059852
upperneck 21.323894457341567 -4.267956097779325 1.884711563904429
head 9.48345142317 -2.1879483155723904 0.26800836902321173
lclavicle 3.0076445290929493e-16 5.650158575113924e-17
lhumerus -32.41575084341066 2.5939615715726907 83.28291105059307
lradius 22.52693029227722
lwrist 6.781487103754416
lhand -29.12636114273048 20.125108536162003
lfingers 7.125020000000001
lthumb -2.4931021420499397 50.31729730897492
rclavicle 2.9939854500810235e-16 5.552075422212174e-17
rhumerus -28.94205611440695 -18.353415577186396 -78.39089376007941
rradius 29.034110244904166
rwrist 3.2701630031465916
rhand -17.917106817210097 23.41661038593337
rfingers 7.125020000000001
rthumb 7.955093499000235 -7.107600870542029
56
root 0.2481929175561743 17.8443053384083 31.823319142378814 -2.399275968639751 -3.0085502876555696 -7.913190659327967
lfemur -25.997563811685165 3.001216348184834 -12.246691430654082
ltibia 52.684386598024986
lfoot -2.117322915188474 -2.7705459001875195
ltoes -7.775156771288383
rfemur -5.444494988319889 3.5493210034114266 33.67155719761822
rtibia 32.51169008587518
rfoot -10.739810335861687 -7.012422369996014
rtoes 3.1380616944208497
lowerback 10.73295991360699 1.0599354996511645 4.592453284023108
upperback -0.08721302679870219 2.2568606675447724 2.258848655349799
thorax -5.931902455020156 0.7863943793371572 -0.16990690653559137
lowerneck -16.3829761580276 -3.5563735244594934 -1.5758925224951352
upperneck 21.235680607181042 -4.278956896573903 1.8844844250262567
head 9.469964918579382 -2.2012603459131608 0.2747510772753958
lclavicle 3.0076445330974523e-16 5.650158603869474e-17
lhumerus -33.34601631350283 3.4155121805104423 83.04919455262285
lradius 22.32573059843501
lwrist 6.5188955773855835
lhand -29.232780611751014 19.703980141103564
lfingers 7.125020000000001
lthumb -2.506255630583198 50.17371202496061
rclavicle 2.9939854486484625e-16 5.552075411925235e-17
rhumerus -27.240917608790195 -16.056073304121618 -79.39651889247203
rradius 29.2699332186294
rwrist 2.75208192831552
rhand -17.976790610627095 23.37691203490533
rfingers 7.125020000000001
rthumb 7.913246845540197 -7.087475300967012
